HIERARCHY
ROOT Hips
{
	OFFSET 0.000000 0.000000 0.000000 
	CHANNELS 6 Xposition Yposition Zposition Yrotation Zrotation Xrotation 
	JOINT Lumbar
	{
		OFFSET 0.000000 0.000000 0.000000 
		CHANNELS 3 Zrotation Xrotation Yrotation
		JOINT Neck
		{
			OFFSET 0.000000 0.445665 0.000000 
			CHANNELS 3 Zrotation Xrotation Yrotation
			End Site
			{
				OFFSET 0.000000 0.227535 0.000000 
			}
		}
		JOINT RightShoulder
		{
			OFFSET 0.019635 0.377685 0.194865 
			CHANNELS 3 Zrotation Xrotation Yrotation
			JOINT RightElbow
			{
				OFFSET 0.000000 -0.243375 0.000000 
				CHANNELS 2 Zrotation Yrotation
				JOINT RightWrist
				{
					OFFSET 0.000000 -0.264825 0.000000 
					CHANNELS 2 Zrotation Xrotation
					End Site
					{
						OFFSET 0.006600 -0.176220 0.000990 
					}
				}
			}
		}
		JOINT LeftShoulder
		{
			OFFSET 0.019635 0.377685 -0.194865 
			CHANNELS 3 Zrotation Xrotation Yrotation
			JOINT LeftElbow
			{
				OFFSET 0.000000 -0.243375 0.000000 
				CHANNELS 2 Zrotation Yrotation
				JOINT LeftWrist
				{
					OFFSET 0.000000 -0.264825 0.000000 
					CHANNELS 2 Zrotation Xrotation
					End Site
					{
						OFFSET 0.006600 -0.176220 -0.000990 
					}
				}
			}
		}
	}
	JOINT RightHip
	{
		OFFSET 0.052140 -0.069960 0.075570 
		CHANNELS 3 Zrotation Xrotation Yrotation
		JOINT RightKnee
		{
			OFFSET 0.000000 -0.402270 0.000000 
			CHANNELS 1 Zrotation
			JOINT RightAnkle
			{
				OFFSET 0.000000 -0.404085 0.000000 
				CHANNELS 3 Zrotation Xrotation Yrotation
				End Site
				{
					OFFSET 0.204105 -0.089430 0.008415 
				}
			}
		}
	}
	JOINT LeftHip
	{
		OFFSET 0.052140 -0.069960 -0.075570 
		CHANNELS 3 Zrotation Xrotation Yrotation
		JOINT LeftKnee
		{
			OFFSET 0.000000 -0.402270 0.000000 
			CHANNELS 1 Zrotation
			JOINT LeftAnkle
			{
				OFFSET 0.000000 -0.404085 0.000000 
				CHANNELS 3 Zrotation Xrotation Yrotation
				End Site
				{
					OFFSET 0.204105 -0.089430 -0.008415 
				}
			}
		}
	}
}
MOTION
Frames: 32
Frame Time: 0.02
0.04633 0.94764 -0.07096 169.09844 0 -3.45845 -6.74599 10.07387 -6.1945 -20.59273 8.89582 3.91845 26.57578 -35.91065 32.07966 33.31989 99.61986 -14.41221 -8.09684 19.49715 11.48726 -20.89077 19.8347 -82.59189 -10.53101 5.2072 0.57194 8.14393 0.05044 -6.83406 -2.10069 -2.09493 0.10253 7.37346 9.70104 4.52488 -25.52315 10.52547 4.80399 3.18787
0.04628 0.94797 -0.06646 168.90883 0 -3.4807 -7.01351 10.27835 -5.97868 -20.38203 8.76433 3.99102 27.2464 -35.12086 32.23086 31.55253 100.03513 -14.28941 -8.22502 19.43031 11.51862 -21.38745 19.87487 -82.57246 -10.53636 5.21042 0.51488 7.91684 0.04134 -6.60456 -2.23178 -2.10857 0.24101 7.23958 9.44956 3.63646 -25.13172 10.56456 4.72642 3.13548
0.04613 0.94826 -0.06151 168.76706 0 -3.51525 -7.29348 10.48771 -5.78355 -20.13619 8.65859 4.04924 27.75046 -34.28594 32.03228 29.848 100.08514 -14.03149 -8.29375 19.33297 11.5427 -21.84662 19.9194 -82.5622 -10.5525 5.22597 0.43827 7.68234 0.04781 -6.34119 -2.37372 -2.16293 0.31906 7.04133 9.15413 2.68983 -24.56034 10.53818 4.69802 3.23819
0.04604 0.94858 -0.05672 168.60405 0 -3.54402 -7.57221 10.69099 -5.58072 -19.90201 8.54875 4.11415 28.31977 -33.4836 31.99113 28.13246 100.24527 -13.81485 -8.37968 19.2497 11.56497 -22.33112 19.95598 -82.55143 -10.55762 5.23549 0.37672 7.4497 0.05315 -6.10253 -2.50954 -2.19557 0.41826 6.87282 8.88052 1.81054 -24.07311 10.53788 4.64148 3.25729
0.04588 0.94889 -0.05209 168.43931 0 -3.5734 -7.83027 10.91114 -5.37034 -19.69071 8.40746 4.17871 28.94154 -32.62645 31.95604 26.33108 100.64181 -13.6818 -8.50844 19.1684 11.60775 -22.78099 20.01785 -82.52432 -10.58699 5.24722 0.28637 7.22295 0.03684 -5.82055 -2.65166 -2.24155 0.53955 6.70005 8.59907 0.75819 -23.57245 10.55412 4.6052 3.32411
0.04585 0.94919 -0.04704 168.28911 0 -3.60411 -8.13704 11.09609 -5.18097 -19.41871 8.33751 4.24035 29.40895 -31.87375 31.8265 24.72899 100.46661 -13.34632 -8.53335 19.07302 11.60705 -23.29438 20.02816 -82.5336 -10.57027 5.25718 0.2539 6.98211 0.06868 -5.62403 -2.78297 -2.27015 0.60146 6.52199 8.3229 0.05207 -23.05784 10.51947 4.54032 3.33175
0.04613 0.94943 -0.041 168.17095 0 -3.64032 -8.55168 11.19514 -5.04104 -19.02369 8.45846 4.29822 29.51872 -31.42686 31.50916 23.65038 98.70754 -12.44546 -8.28682 18.96729 11.48106 -23.98672 19.89404 -82.64323 -10.40842 5.25847 0.36771 6.70711 0.21974 -5.65037 -2.87877 -2.23242 0.52499 6.34198 8.07989 0.32322 -22.55545 10.36669 4.3807 3.13313
0.04657 0.94965 -0.03456 168.06521 0 -3.67666 -9.01933 11.25649 -4.9217 -18.56205 8.64996 4.35321 29.47258 -31.08624 31.1118 22.77469 96.40204 -11.35297 -7.93823 18.84494 11.31289 -24.74485 19.7083 -82.7889 -10.20278 5.25765 0.54394 6.41763 0.41895 -5.76808 -2.96345 -2.17707 0.39066 6.15991 7.84234 0.94325 -22.04491 10.16389 4.19196 2.87188
0.047 0.94988 -0.02828 167.95131 0 -3.7098 -9.47809 11.32681 -4.79585 -18.10693 8.80926 4.40932 29.47908 -30.69329 30.75832 21.81404 94.40735 -10.37329 -7.63467 18.71551 11.16869 -25.47686 19.5465 -82.91688 -10.02707 5.25817 0.70382 6.13313 0.60335 -5.85842 -3.05528 -2.13546 0.27514 5.98082 7.59734 1.39967 -21.53379 9.97952 4.0194 2.64309
0.04715 0.95009 -0.02207 167.84926 0 -3.75646 -9.87294 11.43115 -4.66071 -17.75024 8.97107 4.46681 29.55789 -30.31518 30.35801 20.82121 92.13624 -9.27877 -7.33167 18.64445 11.00407 -26.19309 19.38177 -83.05078 -9.80901 5.2574 0.8125 5.85565 0.76276 -5.88821 -3.13958 -2.07196 0.18463 5.78996 7.37192 1.87716 -21.03288 9.81026 3.83555 2.40129
0.04791 0.95034 -0.01562 167.7254 0 -3.775 -10.41354 11.45637 -4.54703 -17.17401 9.14281 4.51956 29.44981 -29.9327 30.04442 19.94727 90.31592 -8.38165 -7.00793 18.45121 10.8719 -26.95647 19.21217 -83.1807 -9.66912 5.25878 1.04262 5.55954 0.98012 -6.06574 -3.23562 -2.04822 0.03461 5.62505 7.10741 2.39215 -20.51302 9.59947 3.66829 2.17149
0.05034 0.95076 -0.00866 167.53279 0 -3.71439 -11.34125 11.26576 -4.5094 -16.00214 9.3355 4.57289 28.87706 -29.50686 29.95849 19.31305 89.87378 -8.06007 -6.6179 17.89984 10.84028 -27.84996 19.03117 -83.29396 -9.75312 5.26569 1.59576 5.221 1.39003 -6.63406 -3.37664 -2.1476 -0.31158 5.52305 6.73531 2.94654 -19.92703 9.2779 3.5484 1.97386
0.05338 0.95121 -0.00148 167.31812 0 -3.62564 -12.4137 10.99792 -4.48875 -14.61401 9.53374 4.62007 28.1206 -29.07446 29.96882 18.79776 89.90528 -7.94723 -6.21653 17.23108 10.84216 -28.78593 18.84965 -83.40295 -9.91883 5.27499 2.26864 4.86308 1.84759 -7.34734 -3.52804 -2.2854 -0.70613 5.44891 6.32361 3.52412 -19.32566 8.91803 3.44682 1.79219
0.05615 0.95162 0.0056 167.11754 0 -3.5508 -13.42198 10.76991 -4.44557 -13.32734 9.72208 4.66052 27.43956 -28.64839 29.95918 18.25412 89.7229 -7.75063 -5.84379 16.63226 10.82897 -29.69202 18.67447 -83.50972 -10.0475 5.28369 2.88472 4.51072 2.25505 -7.99076 -3.66809 -2.39986 -1.04886 5.36894 5.92911 4.07599 -18.7432 8.58158 3.34053 1.61385
0.05891 0.95214 0.01268 166.90224 0 -3.47152 -14.42734 10.52117 -4.46458 -12.02016 9.94352 4.73749 26.78441 -28.21069 29.85181 17.6119 89.51851 -7.50152 -5.37101 15.96195 10.81576 -30.64465 18.46911 -83.62869 -10.16988 5.2901 3.51254 4.17225 2.78698 -8.65326 -3.83543 -2.53982 -1.5222 5.26169 5.53803 4.69927 -18.1119 8.21833 3.2188 1.39104
0.06181 0.95245 0.01982 166.70973 0 -3.39443 -15.46995 10.29706 -4.35919 -10.71116 10.09709 4.74147 26.03707 -27.79575 29.96482 17.19708 89.47575 -7.41243 -5.10187 15.41396 10.80846 -31.51007 18.33044 -83.72908 -10.33082 5.30208 4.14412 3.79958 3.06699 -9.31038 -3.94894 -2.63444 -1.73101 5.21583 5.1305 5.18075 -17.57645 7.90201 3.13293 1.26259
0.06505 0.95218 0.0271 166.60634 0 -3.33351 -16.60027 10.16625 -3.89375 -9.40037 10.05499 4.50599 25.05299 -27.43185 30.7218 17.4103 89.79984 -7.72781 -5.4277 15.22345 10.8327 -32.1207 18.34801 -83.70599 -10.5305 5.32708 4.75187 3.34467 2.66783 -9.90812 -3.90801 -2.60864 -1.22615 5.3506 4.68598 5.21127 -17.33019 7.72915 3.15091 1.4164
0.06839 0.95171 0.03442 166.52264 0 -3.27519 -17.75837 10.06218 -3.30442 -8.10535 9.94496 4.20411 23.98863 -27.09273 31.68451 17.84159 90.26626 -8.19544 -5.95399 15.16179 10.85798 -32.64314 18.43808 -83.67658 -10.77451 5.3579 5.36009 2.85474 2.00801 -10.49716 -3.81323 -2.53375 -0.44901 5.54284 4.22645 5.10581 -17.17728 7.60438 3.20303 1.66078
0.07162 0.95134 0.04171 166.41631 0 -3.2135 -18.89105 9.94154 -2.78025 -6.83539 9.87065 3.95914 22.97922 -26.75093 32.51754 18.1531 90.64641 -8.5854 -6.36921 15.04722 10.86714 -33.20711 18.51378 -83.69949 -11.03078 5.38726 5.97074 2.376 1.44887 -11.09511 -3.74527 -2.47161 0.22416 5.69708 3.77467 5.0971 -16.96788 7.45474 3.23319 1.84641
0.07513 0.95092 0.04907 166.36722 0 -3.15991 -20.08559 9.83571 -2.22065 -5.41967 9.77761 3.60324 21.88412 -26.37406 33.51555 18.55701 91.13376 -9.01839 -6.86754 14.90496 10.94183 -33.76368 18.51154 -83.51865 -11.15637 5.41187 6.57358 1.91637 0.96651 -11.67536 -3.66771 -2.44948 0.81732 5.90258 3.31776 4.94506 -16.81661 7.31597 3.29002 2.10425
0.07808 0.95055 0.05629 166.20354 0 -3.09065 -21.15251 9.70779 -1.7035 -4.31678 9.70549 3.45999 20.95237 -26.07451 34.20639 18.81762 91.42565 -9.3951 -7.24146 14.85216 10.88192 -34.31769 18.68819 -83.7543 -11.55948 5.44753 7.19229 1.40908 0.26168 -12.2909 -3.59729 -2.33398 1.6359 6.01443 2.86829 5.05488 -16.56753 7.16709 3.30062 2.2362
0.07955 0.95035 0.06316 165.7224 0 -2.97565 -21.88788 9.5015 -1.34934 -4.05305 9.7231 3.9435 20.47985 -25.99703 34.09472 18.63765 91.14048 -9.57926 -7.21476 15.01784 10.43311 -34.85358 19.34883 -85.19624 -12.75096 5.51384 7.84446 0.77669 -0.99319 -12.98427 -3.5589 -1.95401 3.06699 5.85481 2.44488 5.95457 -16.01825 6.97398 3.16292 1.97045
0.08044 0.95019 0.06988 165.12537 0 -2.84524 -22.48719 9.27495 -1.03981 -4.10889 9.76094 4.63881 20.17769 -25.99388 33.64936 18.30402 90.65194 -9.70026 -7.05751 15.26854 9.85246 -35.39439 20.18662 -87.04679 -14.21204 5.59084 8.51337 0.09786 -2.46262 -13.71652 -3.52959 -1.48497 4.70537 5.59856 2.02928 7.11569 -15.36895 6.77025 2.97975 1.57973
0.08153 0.95001 0.07664 164.57813 0 -2.72331 -23.13088 9.06456 -0.69886 -4.03275 9.77974 5.2222 19.80585 -25.94702 33.29211 18.03417 90.25566 -9.84933 -6.96535 15.47969 9.34231 -35.95597 20.93693 -88.67512 -15.52981 5.66181 9.18138 -0.55808 -3.83524 -14.44482 -3.49668 -1.06888 6.21178 5.38563 1.60915 8.1355 -14.77007 6.57435 2.8254 1.26481
0.0829 0.94984 0.08351 164.04079 0 -2.59541 -23.85243 8.82373 -0.39813 -3.89977 9.83881 5.87027 19.39791 -25.94258 33.20646 17.79631 89.86483 -10.00735 -6.85578 15.70153 8.78487 -36.42326 21.71493 -90.45969 -16.94365 5.73761 9.8233 -1.22214 -5.21675 -15.11604 -3.45991 -0.59882 7.88651 5.1773 1.1928 9.2472 -14.15272 6.36675 2.63778 0.87397
0.08353 0.94965 0.09011 163.45872 0 -2.476 -24.3752 8.64362 -0.02897 -3.96257 9.81832 6.4337 19.1073 -25.86755 32.47805 17.45402 89.41305 -10.12866 -6.74895 15.91663 8.29793 -37.08188 22.48175 -92.01309 -18.21242 5.80619 10.52085 -1.88064 -6.62385 -15.91414 -3.43376 -0.22022 9.25707 4.93558 0.77041 10.22933 -13.5498 6.1812 2.50824 0.60894
0.0824 0.94939 0.09607 162.74947 0 -2.38621 -24.41499 8.61497 0.56684 -4.47445 9.58534 6.72108 19.09532 -25.57599 30.0133 16.847 88.83664 -10.17233 -6.68006 16.11874 8.00935 -38.33168 23.12667 -92.85127 -19.08744 5.84865 11.39092 -2.50534 -8.07693 -17.06457 -3.4374 -0.1201 9.72909 4.62627 0.33173 10.80752 -13.00348 6.0522 2.54986 0.7345
0.08052 0.9491 0.10175 162.00473 0 -2.30508 -24.25295 8.65184 1.22777 -5.17505 9.26979 6.91449 19.19708 -25.21156 26.92072 16.14204 88.20665 -10.17904 -6.61776 16.30646 7.80159 -39.76273 23.76184 -93.43753 -19.79427 5.88377 12.31228 -3.12383 -9.54136 -18.33932 -3.45131 -0.11464 9.88791 4.28642 -0.11355 11.24357 -12.47653 5.94706 2.65141 0.98855
0.07889 0.94881 0.10753 161.29757 0 -2.21838 -24.16202 8.67262 1.84034 -5.79759 8.98427 7.1451 19.24909 -24.88234 24.14212 15.48949 87.60396 -10.19628 -6.55246 16.48165 7.57555 -41.06871 24.43353 -94.12509 -20.52893 5.92502 13.19485 -3.74983 -10.98171 -19.5495 -3.45882 -0.0633 10.19396 3.95938 -0.55731 11.73382 -11.9447 5.835 2.72557 1.17457
0.07761 0.94858 0.11344 160.49726 0 -2.13789 -24.15429 8.63541 2.52936 -6.39763 8.73054 7.40648 19.29708 -24.54602 21.22886 14.79688 86.9803 -10.2373 -6.48267 16.73669 7.26702 -42.55346 24.9797 -94.88617 -21.4744 5.95632 14.1426 -4.3583 -12.51173 -20.79468 -3.47333 -0.02063 10.48688 3.63272 -0.9949 12.27734 -11.39104 5.70504 2.79875 1.39544
0.07543 0.94823 0.11901 159.88226 0 -2.04688 -23.92597 8.7342 3.0768 -7.08659 8.39136 7.57849 19.3804 -24.2073 18.45399 14.16831 86.3921 -10.22154 -6.42556 16.82551 7.15123 -43.71088 25.77798 -95.42449 -21.94213 6.00462 14.96749 -5.00043 -13.85218 -21.99651 -3.47633 0.01612 10.7299 3.30024 -1.44659 12.67235 -10.89104 5.61939 2.88885 1.57778
0.07098 0.9476 0.12373 159.8036 0 -1.9236 -23.14779 9.19799 3.20353 -7.96155 7.83202 7.52725 19.51476 -23.87065 16.19396 13.72443 85.89942 -10.05185 -6.40103 16.41951 7.54723 -43.90133 27.31192 -95.4468 -21.08858 6.11779 15.43198 -5.74273 -14.68738 -23.04261 -3.43895 0.06175 10.91107 2.95131 -1.93884 12.69418 -10.5154 5.63968 3.01085 1.60603
